<svg width="200mm" height="220mm" version="1.1" viewBox="0 0 200 220" xmlns="http://www.w3.org/2000/svg">
	<g transform="translate(-4.78 -38.7)">
		<g transform="translate(1.03 .464)">
			<path d="m50.3 102 3.98-57.1 32 44.6z" fill="#fff" stroke="#000" stroke-linecap="round" stroke-linejoin="round" stroke-width="7"/>
			<path d="m153 99.4-6.02-57.7-30.5 45.2z" fill="#fff" stroke="#000" stroke-linecap="round" stroke-linejoin="round" stroke-width="7"/>
			<g fill="#fff" stroke="#000" stroke-linecap="round" stroke-linejoin="round" stroke-width="6">
				<path d="m49.7 213 18.5 10.4c-7.01 16.4-11.1 21.1-22.5 29.9-1.69-14.9-0.269-27 3.98-40.4z"/>
				<path d="m77.4 218-17.4 5.91c5.23 14.4 6.31 20.3 14.8 28.4 6.36-15.1 5.35-20.4 2.61-34.3z"/>
			</g>
			<g fill="#fff" stroke="#000" stroke-linecap="round" stroke-width="6">
				<path d="m133 224 16.9 1.51c-1.11 12.1-3.42 15.7-12.2 27.9-8.38-11.2-7.75-17.5-4.67-29.4z" stroke-linejoin="round"/>
				<path d="m163 214-20.9 10c8.25 16.9 12.3 23.4 22 30.6 5.4-12.7 3.15-27.2-1.1-40.6z" stroke-linejoin="round"/>
				<ellipse cx="104" cy="157" rx="97.2" ry="82.1" stroke-dashoffset="1.6"/>
			</g>
			<ellipse cx="69.8" cy="110" rx="6.93" ry="6.52"/>
			<ellipse cx="122" cy="110" rx="6.93" ry="6.52"/>
			<g fill="none" stroke="#000" stroke-linejoin="round" stroke-width="6">
				<path d="m65.8 132s-0.871 6.82 0.929 9.4c2.02 2.9 6.03 4.19 9.53 4.63 2.69 0.339 5.58-0.348 7.97-1.63 5.37-2.87 10.4-9.89 13-12.9" stroke-linecap="round"/>
				<path d="m121 139s-3.28 7.57-6.64 9.47c-3.48 1.98-8.13 2.02-12 0.88-2.55-0.762-4.8-2.69-6.35-4.86-1.46-2.05-2.73-4.66-2.4-7.15 0.3-2.29 2.55-3.86 3.83-5.79 1.29-1.96 3.88-5.87 3.88-5.87" stroke-linecap="round"/>
				<path d="m78.4 144s-0.973 6.05-0.451 9.01c0.886 5.03 2.58 10.3 5.95 14.1 2.36 2.69 5.73 5.98 9.27 5.43 3.53-0.548 5.29-4.93 7.16-7.97 2.86-4.64 5.95-15.2 5.95-15.2"/>
				<path d="m84.2 145s4.27-2.93 5.69-5.03c0.877-1.29 1.85-2.87 1.59-4.42-0.415-2.46 0 0-4.7-5.82-0.846-1.05-2.33-3.3-2.33-3.3" stroke-linecap="round"/>
			</g>
		</g>
	</g>
</svg>
